<mxfile host="65bd71144e">
    <diagram id="iJ4j9qFzNyPS3AFb-b5w" name="BSTK">
        <mxGraphModel dx="1483" dy="926" grid="1" gridSize="10" guides="1" tooltips="1" connect="1" arrows="1" fold="1" page="1" pageScale="1" pageWidth="850" pageHeight="1100" math="0" shadow="0">
            <root>
                <mxCell id="0"/>
                <mxCell id="1" parent="0"/>
                <mxCell id="65" value="" style="endArrow=none;html=1;dashed=1;entryX=0.75;entryY=0;entryDx=0;entryDy=0;exitX=0;exitY=0.75;exitDx=0;exitDy=0;" parent="1" source="28" target="39" edge="1">
                    <mxGeometry width="50" height="50" relative="1" as="geometry">
                        <mxPoint x="555" y="250" as="sourcePoint"/>
                        <mxPoint x="175" y="640" as="targetPoint"/>
                        <Array as="points">
                            <mxPoint x="535" y="187"/>
                            <mxPoint x="535" y="240"/>
                            <mxPoint x="300" y="240"/>
                            <mxPoint x="300" y="560"/>
                            <mxPoint x="215" y="560"/>
                        </Array>
                    </mxGeometry>
                </mxCell>
                <mxCell id="6" value="" style="edgeStyle=none;html=1;" parent="1" source="2" target="5" edge="1">
                    <mxGeometry relative="1" as="geometry"/>
                </mxCell>
                <mxCell id="2" value="PO in Portal HSO" style="rounded=1;whiteSpace=wrap;html=1;arcSize=50;fillColor=#0050ef;fontColor=#ffffff;strokeColor=#001DBC;" parent="1" vertex="1">
                    <mxGeometry x="365" y="40" width="120" height="60" as="geometry"/>
                </mxCell>
                <mxCell id="8" value="" style="edgeStyle=none;html=1;" parent="1" source="5" target="7" edge="1">
                    <mxGeometry relative="1" as="geometry"/>
                </mxCell>
                <mxCell id="5" value="&lt;span&gt;Check&lt;br&gt;delivery order (DO)&lt;br&gt;entery&lt;/span&gt;" style="shape=trapezoid;perimeter=trapezoidPerimeter;whiteSpace=wrap;html=1;fixedSize=1;fillColor=#0050ef;fontColor=#ffffff;strokeColor=#001DBC;" parent="1" vertex="1">
                    <mxGeometry x="125" y="40" width="120" height="60" as="geometry"/>
                </mxCell>
                <mxCell id="10" value="" style="edgeStyle=none;html=1;" parent="1" source="7" target="9" edge="1">
                    <mxGeometry relative="1" as="geometry"/>
                </mxCell>
                <mxCell id="35" style="edgeStyle=none;html=1;exitX=0;exitY=0.5;exitDx=0;exitDy=0;entryX=0;entryY=0.25;entryDx=0;entryDy=0;fontSize=11;fillColor=#f8cecc;strokeColor=#b85450;" parent="1" source="7" target="15" edge="1">
                    <mxGeometry relative="1" as="geometry">
                        <Array as="points">
                            <mxPoint x="80" y="150"/>
                            <mxPoint x="80" y="378"/>
                        </Array>
                    </mxGeometry>
                </mxCell>
                <mxCell id="7" value="Units recap to&lt;br&gt;sales marketing" style="shape=trapezoid;perimeter=trapezoidPerimeter;whiteSpace=wrap;html=1;fixedSize=1;fillColor=#008a00;fontColor=#ffffff;strokeColor=#005700;" parent="1" vertex="1">
                    <mxGeometry x="125" y="120" width="120" height="60" as="geometry"/>
                </mxCell>
                <mxCell id="14" value="" style="edgeStyle=none;html=1;" parent="1" source="9" target="13" edge="1">
                    <mxGeometry relative="1" as="geometry"/>
                </mxCell>
                <mxCell id="9" value="Branch head validation, to approve the units recap" style="shape=trapezoid;perimeter=trapezoidPerimeter;whiteSpace=wrap;html=1;fixedSize=1;fillColor=#008a00;fontColor=#ffffff;strokeColor=#005700;" parent="1" vertex="1">
                    <mxGeometry x="125" y="200" width="120" height="60" as="geometry"/>
                </mxCell>
                <mxCell id="16" value="" style="edgeStyle=none;html=1;" parent="1" source="13" target="15" edge="1">
                    <mxGeometry relative="1" as="geometry"/>
                </mxCell>
                <mxCell id="13" value="Engine and frame number validation" style="shape=trapezoid;perimeter=trapezoidPerimeter;whiteSpace=wrap;html=1;fixedSize=1;fillColor=#008a00;fontColor=#ffffff;strokeColor=#005700;" parent="1" vertex="1">
                    <mxGeometry x="125" y="280" width="120" height="60" as="geometry"/>
                </mxCell>
                <mxCell id="18" value="" style="edgeStyle=none;html=1;entryX=0;entryY=0.5;entryDx=0;entryDy=0;" parent="1" target="17" edge="1">
                    <mxGeometry relative="1" as="geometry">
                        <mxPoint x="165" y="410" as="sourcePoint"/>
                        <Array as="points">
                            <mxPoint x="325" y="410"/>
                            <mxPoint x="325" y="250"/>
                        </Array>
                    </mxGeometry>
                </mxCell>
                <mxCell id="36" style="edgeStyle=none;html=1;exitX=1;exitY=0.25;exitDx=0;exitDy=0;entryX=1;entryY=0.5;entryDx=0;entryDy=0;fontSize=11;fillColor=#f8cecc;strokeColor=#b85450;" parent="1" source="15" target="7" edge="1">
                    <mxGeometry relative="1" as="geometry">
                        <Array as="points">
                            <mxPoint x="280" y="376"/>
                            <mxPoint x="280" y="150"/>
                        </Array>
                    </mxGeometry>
                </mxCell>
                <mxCell id="15" value="Input sales/tx by sales marketing" style="shape=parallelogram;perimeter=parallelogramPerimeter;whiteSpace=wrap;html=1;fixedSize=1;fillColor=#0050ef;fontColor=#ffffff;strokeColor=#001DBC;" parent="1" vertex="1">
                    <mxGeometry x="125" y="360" width="120" height="60" as="geometry"/>
                </mxCell>
                <mxCell id="20" value="" style="edgeStyle=none;html=1;" parent="1" source="17" target="19" edge="1">
                    <mxGeometry relative="1" as="geometry"/>
                </mxCell>
                <mxCell id="17" value="Request/create&lt;br&gt;sales invoice" style="shape=parallelogram;perimeter=parallelogramPerimeter;whiteSpace=wrap;html=1;fixedSize=1;fillColor=#0050ef;fontColor=#ffffff;strokeColor=#001DBC;" parent="1" vertex="1">
                    <mxGeometry x="370" y="220" width="120" height="60" as="geometry"/>
                </mxCell>
                <mxCell id="22" value="" style="edgeStyle=none;html=1;" parent="1" source="19" target="21" edge="1">
                    <mxGeometry relative="1" as="geometry"/>
                </mxCell>
                <mxCell id="19" value="Unit inspection,&amp;nbsp;&lt;br&gt;after delivered to dealer" style="shape=trapezoid;perimeter=trapezoidPerimeter;whiteSpace=wrap;html=1;fixedSize=1;fillColor=#008a00;strokeColor=#005700;fontColor=#ffffff;" parent="1" vertex="1">
                    <mxGeometry x="370" y="300" width="120" height="60" as="geometry"/>
                </mxCell>
                <mxCell id="24" value="" style="edgeStyle=none;html=1;" parent="1" source="21" target="23" edge="1">
                    <mxGeometry relative="1" as="geometry"/>
                </mxCell>
                <mxCell id="21" value="Input stock" style="shape=parallelogram;perimeter=parallelogramPerimeter;whiteSpace=wrap;html=1;fixedSize=1;fillColor=#008a00;strokeColor=#005700;fontColor=#ffffff;" parent="1" vertex="1">
                    <mxGeometry x="370" y="380" width="120" height="60" as="geometry"/>
                </mxCell>
                <mxCell id="25" style="edgeStyle=none;html=1;exitX=1;exitY=0.5;exitDx=0;exitDy=0;fontStyle=1;entryX=0.5;entryY=0;entryDx=0;entryDy=0;" parent="1" source="23" target="44" edge="1">
                    <mxGeometry relative="1" as="geometry">
                        <mxPoint x="485" y="500" as="targetPoint"/>
                        <Array as="points">
                            <mxPoint x="510" y="500"/>
                        </Array>
                    </mxGeometry>
                </mxCell>
                <mxCell id="DfugBH4wGImhdgYiXU5F-78" value="No" style="edgeLabel;html=1;align=center;verticalAlign=middle;resizable=0;points=[];" parent="25" vertex="1" connectable="0">
                    <mxGeometry x="-0.8514" relative="1" as="geometry">
                        <mxPoint as="offset"/>
                    </mxGeometry>
                </mxCell>
                <mxCell id="43" style="edgeStyle=none;html=1;exitX=0.5;exitY=1;exitDx=0;exitDy=0;entryX=0.5;entryY=0;entryDx=0;entryDy=0;" parent="1" source="23" target="37" edge="1">
                    <mxGeometry relative="1" as="geometry">
                        <Array as="points">
                            <mxPoint x="430" y="560"/>
                            <mxPoint x="355" y="560"/>
                        </Array>
                    </mxGeometry>
                </mxCell>
                <mxCell id="DfugBH4wGImhdgYiXU5F-77" value="Yes" style="edgeLabel;html=1;align=center;verticalAlign=middle;resizable=0;points=[];" parent="43" vertex="1" connectable="0">
                    <mxGeometry x="-0.7539" y="-1" relative="1" as="geometry">
                        <mxPoint as="offset"/>
                    </mxGeometry>
                </mxCell>
                <mxCell id="23" value="Is&lt;br&gt;Indent?" style="rhombus;whiteSpace=wrap;html=1;" parent="1" vertex="1">
                    <mxGeometry x="390" y="460" width="80" height="80" as="geometry"/>
                </mxCell>
                <mxCell id="33" value="" style="edgeStyle=none;html=1;exitX=1;exitY=1;exitDx=0;exitDy=0;" parent="1" source="26" target="32" edge="1">
                    <mxGeometry relative="1" as="geometry"/>
                </mxCell>
                <mxCell id="DfugBH4wGImhdgYiXU5F-67" value="" style="edgeStyle=none;html=1;exitX=0.5;exitY=1;exitDx=0;exitDy=0;" parent="1" source="26" target="DfugBH4wGImhdgYiXU5F-66" edge="1">
                    <mxGeometry relative="1" as="geometry">
                        <Array as="points">
                            <mxPoint x="510" y="765"/>
                        </Array>
                    </mxGeometry>
                </mxCell>
                <mxCell id="26" value="Input sales" style="shape=parallelogram;perimeter=parallelogramPerimeter;whiteSpace=wrap;html=1;fixedSize=1;fillColor=#008a00;fontColor=#ffffff;strokeColor=#005700;" parent="1" vertex="1">
                    <mxGeometry x="450" y="665" width="120" height="60" as="geometry"/>
                </mxCell>
                <mxCell id="28" value="&lt;div&gt;&lt;div style=&quot;text-align: left&quot;&gt;&lt;span&gt;- Customer&lt;/span&gt;&lt;/div&gt;&lt;span&gt;&lt;div style=&quot;text-align: left&quot;&gt;&lt;span&gt;- Unit&lt;/span&gt;&lt;/div&gt;&lt;/span&gt;&lt;/div&gt;" style="shape=hexagon;perimeter=hexagonPerimeter2;whiteSpace=wrap;html=1;fixedSize=1;" parent="1" vertex="1">
                    <mxGeometry x="545" y="130" width="120" height="80" as="geometry"/>
                </mxCell>
                <mxCell id="32" value="&lt;font style=&quot;font-size: 11px&quot;&gt;Found document:&lt;br&gt;&lt;span&gt;&amp;nbsp;- Books cover&lt;br&gt;&amp;nbsp;- Manual checklist&lt;br&gt;&amp;nbsp;- Manual sales db&lt;br&gt;&amp;nbsp;- Sales database&lt;br&gt;&amp;nbsp;- Receipt (cashier)&lt;br&gt;Leasing:&lt;br&gt;&amp;nbsp;- Receipt (leasing)&lt;br&gt;&amp;nbsp;- Print sales db, in approvel letter.&lt;br&gt;&lt;/span&gt;&lt;/font&gt;" style="shape=document;whiteSpace=wrap;html=1;boundedLbl=1;align=left;" parent="1" vertex="1">
                    <mxGeometry x="645" y="600" width="180" height="230" as="geometry"/>
                </mxCell>
                <mxCell id="40" value="" style="edgeStyle=none;html=1;entryX=0.5;entryY=0;entryDx=0;entryDy=0;exitX=0;exitY=0.5;exitDx=0;exitDy=0;" parent="1" source="37" target="39" edge="1">
                    <mxGeometry relative="1" as="geometry">
                        <Array as="points">
                            <mxPoint x="185" y="620"/>
                        </Array>
                    </mxGeometry>
                </mxCell>
                <mxCell id="DfugBH4wGImhdgYiXU5F-84" style="edgeStyle=none;html=1;exitX=0.5;exitY=1;exitDx=0;exitDy=0;entryX=0.75;entryY=0;entryDx=0;entryDy=0;" parent="1" source="37" target="DfugBH4wGImhdgYiXU5F-83" edge="1">
                    <mxGeometry relative="1" as="geometry">
                        <Array as="points">
                            <mxPoint x="355" y="670"/>
                            <mxPoint x="280" y="670"/>
                        </Array>
                    </mxGeometry>
                </mxCell>
                <mxCell id="37" value="Cashier" style="rounded=1;whiteSpace=wrap;html=1;fillColor=#008a00;fontColor=#ffffff;strokeColor=#005700;" parent="1" vertex="1">
                    <mxGeometry x="295" y="590" width="120" height="60" as="geometry"/>
                </mxCell>
                <mxCell id="DfugBH4wGImhdgYiXU5F-70" style="edgeStyle=none;html=1;exitX=1;exitY=0.5;exitDx=0;exitDy=0;entryX=0;entryY=0.5;entryDx=0;entryDy=0;" parent="1" source="39" target="26" edge="1">
                    <mxGeometry relative="1" as="geometry"/>
                </mxCell>
                <mxCell id="39" value="Input indent&lt;br&gt;nb: &lt;br&gt;input customer&lt;br&gt;melalui menu (sales)" style="shape=parallelogram;perimeter=parallelogramPerimeter;whiteSpace=wrap;html=1;fixedSize=1;fillColor=#008a00;fontColor=#ffffff;strokeColor=#005700;" parent="1" vertex="1">
                    <mxGeometry x="125" y="665" width="120" height="60" as="geometry"/>
                </mxCell>
                <mxCell id="49" style="edgeStyle=none;html=1;exitX=0.5;exitY=1;exitDx=0;exitDy=0;entryX=1;entryY=0.5;entryDx=0;entryDy=0;" parent="1" source="41" target="26" edge="1">
                    <mxGeometry relative="1" as="geometry">
                        <Array as="points">
                            <mxPoint x="605" y="695"/>
                        </Array>
                    </mxGeometry>
                </mxCell>
                <mxCell id="41" value="Input Manual" style="shape=parallelogram;perimeter=parallelogramPerimeter;whiteSpace=wrap;html=1;fixedSize=1;fillColor=#008a00;strokeColor=#005700;fontColor=#ffffff;" parent="1" vertex="1">
                    <mxGeometry x="545" y="470" width="120" height="60" as="geometry"/>
                </mxCell>
                <mxCell id="47" style="edgeStyle=none;html=1;exitX=0.5;exitY=1;exitDx=0;exitDy=0;entryX=0.5;entryY=0;entryDx=0;entryDy=0;" parent="1" source="44" target="26" edge="1">
                    <mxGeometry relative="1" as="geometry"/>
                </mxCell>
                <mxCell id="DfugBH4wGImhdgYiXU5F-82" value="Yes" style="edgeLabel;html=1;align=center;verticalAlign=middle;resizable=0;points=[];" parent="47" vertex="1" connectable="0">
                    <mxGeometry x="-0.472" relative="1" as="geometry">
                        <mxPoint as="offset"/>
                    </mxGeometry>
                </mxCell>
                <mxCell id="DfugBH4wGImhdgYiXU5F-80" style="edgeStyle=none;html=1;exitX=1;exitY=0.5;exitDx=0;exitDy=0;entryX=0.25;entryY=1;entryDx=0;entryDy=0;" parent="1" source="44" target="41" edge="1">
                    <mxGeometry relative="1" as="geometry">
                        <Array as="points">
                            <mxPoint x="575" y="600"/>
                        </Array>
                    </mxGeometry>
                </mxCell>
                <mxCell id="DfugBH4wGImhdgYiXU5F-81" value="No" style="edgeLabel;html=1;align=center;verticalAlign=middle;resizable=0;points=[];" parent="DfugBH4wGImhdgYiXU5F-80" vertex="1" connectable="0">
                    <mxGeometry x="-0.8947" y="-1" relative="1" as="geometry">
                        <mxPoint as="offset"/>
                    </mxGeometry>
                </mxCell>
                <mxCell id="44" value="is&lt;br&gt;Asist&lt;br&gt;?" style="rhombus;whiteSpace=wrap;html=1;" parent="1" vertex="1">
                    <mxGeometry x="470" y="560" width="80" height="80" as="geometry"/>
                </mxCell>
                <mxCell id="61" value="Done Asist" style="rounded=1;whiteSpace=wrap;html=1;arcSize=50;fillColor=#0050ef;fontColor=#ffffff;strokeColor=#001DBC;" parent="1" vertex="1">
                    <mxGeometry x="325" y="920" width="120" height="60" as="geometry"/>
                </mxCell>
                <mxCell id="62" value="" style="endArrow=none;html=1;entryX=0.5;entryY=1;entryDx=0;entryDy=0;exitX=0.5;exitY=0;exitDx=0;exitDy=0;dashed=1;" parent="1" source="41" target="28" edge="1">
                    <mxGeometry width="50" height="50" relative="1" as="geometry">
                        <mxPoint x="565" y="300" as="sourcePoint"/>
                        <mxPoint x="615" y="250" as="targetPoint"/>
                    </mxGeometry>
                </mxCell>
                <mxCell id="64" value="" style="endArrow=none;html=1;dashed=1;exitX=1;exitY=0.5;exitDx=0;exitDy=0;entryX=0;entryY=0.5;entryDx=0;entryDy=0;" parent="1" source="15" target="28" edge="1">
                    <mxGeometry width="50" height="50" relative="1" as="geometry">
                        <mxPoint x="565" y="270" as="sourcePoint"/>
                        <mxPoint x="615" y="220" as="targetPoint"/>
                        <Array as="points">
                            <mxPoint x="290" y="390"/>
                            <mxPoint x="290" y="170"/>
                        </Array>
                    </mxGeometry>
                </mxCell>
                <mxCell id="DfugBH4wGImhdgYiXU5F-72" style="edgeStyle=none;html=1;exitX=0.5;exitY=0;exitDx=0;exitDy=0;entryX=0.75;entryY=1;entryDx=0;entryDy=0;" parent="1" source="DfugBH4wGImhdgYiXU5F-66" target="37" edge="1">
                    <mxGeometry relative="1" as="geometry"/>
                </mxCell>
                <mxCell id="DfugBH4wGImhdgYiXU5F-76" value="No" style="edgeLabel;html=1;align=center;verticalAlign=middle;resizable=0;points=[];" parent="DfugBH4wGImhdgYiXU5F-72" vertex="1" connectable="0">
                    <mxGeometry x="-0.5467" y="1" relative="1" as="geometry">
                        <mxPoint as="offset"/>
                    </mxGeometry>
                </mxCell>
                <mxCell id="BAKmZwKVgwEDWxH28n9g-89" style="edgeStyle=none;html=1;exitX=0;exitY=0;exitDx=0;exitDy=0;entryX=0.5;entryY=0;entryDx=0;entryDy=0;" parent="1" source="DfugBH4wGImhdgYiXU5F-66" target="DfugBH4wGImhdgYiXU5F-83" edge="1">
                    <mxGeometry relative="1" as="geometry">
                        <Array as="points">
                            <mxPoint x="250" y="745"/>
                        </Array>
                    </mxGeometry>
                </mxCell>
                <mxCell id="DfugBH4wGImhdgYiXU5F-66" value="is leasing" style="rhombus;whiteSpace=wrap;html=1;" parent="1" vertex="1">
                    <mxGeometry x="345" y="725" width="80" height="80" as="geometry"/>
                </mxCell>
                <mxCell id="DfugBH4wGImhdgYiXU5F-75" value="" style="edgeStyle=none;html=1;" parent="1" source="DfugBH4wGImhdgYiXU5F-69" target="61" edge="1">
                    <mxGeometry relative="1" as="geometry"/>
                </mxCell>
                <mxCell id="DfugBH4wGImhdgYiXU5F-69" value="Prin BSTK&lt;br&gt;nb: ADH approved" style="shape=parallelogram;perimeter=parallelogramPerimeter;whiteSpace=wrap;html=1;fixedSize=1;fillColor=#008a00;fontColor=#ffffff;strokeColor=#005700;" parent="1" vertex="1">
                    <mxGeometry x="325" y="830" width="120" height="60" as="geometry"/>
                </mxCell>
                <mxCell id="DfugBH4wGImhdgYiXU5F-85" style="edgeStyle=none;html=1;exitX=0.5;exitY=1;exitDx=0;exitDy=0;entryX=0;entryY=0.5;entryDx=0;entryDy=0;" parent="1" source="DfugBH4wGImhdgYiXU5F-83" target="DfugBH4wGImhdgYiXU5F-69" edge="1">
                    <mxGeometry relative="1" as="geometry">
                        <Array as="points">
                            <mxPoint x="250" y="860"/>
                        </Array>
                    </mxGeometry>
                </mxCell>
                <mxCell id="DfugBH4wGImhdgYiXU5F-87" value="" style="edgeStyle=none;html=1;" parent="1" source="DfugBH4wGImhdgYiXU5F-83" target="DfugBH4wGImhdgYiXU5F-86" edge="1">
                    <mxGeometry relative="1" as="geometry"/>
                </mxCell>
                <mxCell id="DfugBH4wGImhdgYiXU5F-83" value="Receipt" style="shape=parallelogram;perimeter=parallelogramPerimeter;whiteSpace=wrap;html=1;fixedSize=1;fillColor=#008a00;fontColor=#ffffff;strokeColor=#005700;" parent="1" vertex="1">
                    <mxGeometry x="190" y="770" width="120" height="60" as="geometry"/>
                </mxCell>
                <mxCell id="DfugBH4wGImhdgYiXU5F-86" value="Calculate account" style="shape=process;whiteSpace=wrap;html=1;backgroundOutline=1;" parent="1" vertex="1">
                    <mxGeometry x="30" y="770" width="120" height="60" as="geometry"/>
                </mxCell>
            </root>
        </mxGraphModel>
    </diagram>
    <diagram id="v8GTgPEvDIFBfP7R7guy" name="Penagihan">
        <mxGraphModel dx="964" dy="602" grid="1" gridSize="10" guides="1" tooltips="1" connect="1" arrows="1" fold="1" page="1" pageScale="1" pageWidth="850" pageHeight="1100" math="0" shadow="0">
            <root>
                <mxCell id="GmEpQiNNZt4ZZr8mpuTk-0"/>
                <mxCell id="GmEpQiNNZt4ZZr8mpuTk-1" parent="GmEpQiNNZt4ZZr8mpuTk-0"/>
                <mxCell id="Q_I9X__tKUnE55MZpNYp-2" value="" style="edgeStyle=none;html=1;" parent="GmEpQiNNZt4ZZr8mpuTk-1" source="Q_I9X__tKUnE55MZpNYp-0" target="Q_I9X__tKUnE55MZpNYp-1" edge="1">
                    <mxGeometry relative="1" as="geometry"/>
                </mxCell>
                <mxCell id="Q_I9X__tKUnE55MZpNYp-0" value="LEASING" style="rounded=1;whiteSpace=wrap;html=1;arcSize=50;" parent="GmEpQiNNZt4ZZr8mpuTk-1" vertex="1">
                    <mxGeometry x="365" y="20" width="120" height="60" as="geometry"/>
                </mxCell>
                <mxCell id="GmpOrZBrnGhalzWjqzNu-2" value="" style="edgeStyle=none;html=1;" parent="GmEpQiNNZt4ZZr8mpuTk-1" source="Q_I9X__tKUnE55MZpNYp-1" target="GmpOrZBrnGhalzWjqzNu-1" edge="1">
                    <mxGeometry relative="1" as="geometry"/>
                </mxCell>
                <mxCell id="GmpOrZBrnGhalzWjqzNu-3" style="edgeStyle=none;html=1;exitX=0;exitY=0.5;exitDx=0;exitDy=0;entryX=1;entryY=0.5;entryDx=0;entryDy=0;" parent="GmEpQiNNZt4ZZr8mpuTk-1" source="Q_I9X__tKUnE55MZpNYp-1" target="GmpOrZBrnGhalzWjqzNu-0" edge="1">
                    <mxGeometry relative="1" as="geometry"/>
                </mxCell>
                <mxCell id="Q_I9X__tKUnE55MZpNYp-1" value="Input sales&lt;br&gt;leasing" style="shape=parallelogram;perimeter=parallelogramPerimeter;whiteSpace=wrap;html=1;fixedSize=1;fillColor=#008a00;fontColor=#ffffff;strokeColor=#005700;" parent="GmEpQiNNZt4ZZr8mpuTk-1" vertex="1">
                    <mxGeometry x="365" y="100" width="120" height="60" as="geometry"/>
                </mxCell>
                <mxCell id="GmpOrZBrnGhalzWjqzNu-5" style="edgeStyle=none;html=1;exitX=0.5;exitY=1;exitDx=0;exitDy=0;entryX=0.5;entryY=0;entryDx=0;entryDy=0;" parent="GmEpQiNNZt4ZZr8mpuTk-1" source="GmpOrZBrnGhalzWjqzNu-0" target="GmpOrZBrnGhalzWjqzNu-4" edge="1">
                    <mxGeometry relative="1" as="geometry"/>
                </mxCell>
                <mxCell id="GmpOrZBrnGhalzWjqzNu-0" value="ACCOUNTING/&lt;br&gt;FINANCE" style="rounded=1;whiteSpace=wrap;html=1;arcSize=50;" parent="GmEpQiNNZt4ZZr8mpuTk-1" vertex="1">
                    <mxGeometry x="180" y="100" width="120" height="60" as="geometry"/>
                </mxCell>
                <mxCell id="J0gOmS68St4jyQfyZ7O3-3" value="" style="edgeStyle=none;html=1;" parent="GmEpQiNNZt4ZZr8mpuTk-1" source="GmpOrZBrnGhalzWjqzNu-1" target="J0gOmS68St4jyQfyZ7O3-2" edge="1">
                    <mxGeometry relative="1" as="geometry"/>
                </mxCell>
                <mxCell id="GmpOrZBrnGhalzWjqzNu-1" value="Download data&lt;br&gt;and&lt;br&gt;paste in monitoring tools" style="shape=trapezoid;perimeter=trapezoidPerimeter;whiteSpace=wrap;html=1;fixedSize=1;fillColor=#008a00;strokeColor=#005700;fontColor=#ffffff;" parent="GmEpQiNNZt4ZZr8mpuTk-1" vertex="1">
                    <mxGeometry x="365" y="180" width="120" height="60" as="geometry"/>
                </mxCell>
                <mxCell id="GmpOrZBrnGhalzWjqzNu-7" value="" style="edgeStyle=none;html=1;" parent="GmEpQiNNZt4ZZr8mpuTk-1" source="GmpOrZBrnGhalzWjqzNu-4" target="GmpOrZBrnGhalzWjqzNu-6" edge="1">
                    <mxGeometry relative="1" as="geometry"/>
                </mxCell>
                <mxCell id="GmpOrZBrnGhalzWjqzNu-4" value="Choose sales&lt;br&gt;(lease paid)" style="shape=parallelogram;perimeter=parallelogramPerimeter;whiteSpace=wrap;html=1;fixedSize=1;fillColor=#a20025;fontColor=#ffffff;strokeColor=#6F0000;" parent="GmEpQiNNZt4ZZr8mpuTk-1" vertex="1">
                    <mxGeometry x="180" y="180" width="120" height="60" as="geometry"/>
                </mxCell>
                <mxCell id="QTRB3e0ypyOCsjY6Pwa0-1" style="edgeStyle=none;html=1;exitX=0;exitY=0.5;exitDx=0;exitDy=0;entryX=1;entryY=0.5;entryDx=0;entryDy=0;" parent="GmEpQiNNZt4ZZr8mpuTk-1" source="GmpOrZBrnGhalzWjqzNu-6" target="QTRB3e0ypyOCsjY6Pwa0-0" edge="1">
                    <mxGeometry relative="1" as="geometry"/>
                </mxCell>
                <mxCell id="J0gOmS68St4jyQfyZ7O3-1" value="" style="edgeStyle=none;html=1;" parent="GmEpQiNNZt4ZZr8mpuTk-1" source="GmpOrZBrnGhalzWjqzNu-6" target="J0gOmS68St4jyQfyZ7O3-0" edge="1">
                    <mxGeometry relative="1" as="geometry"/>
                </mxCell>
                <mxCell id="GmpOrZBrnGhalzWjqzNu-6" value="Matching&lt;br&gt;current account" style="shape=parallelogram;perimeter=parallelogramPerimeter;whiteSpace=wrap;html=1;fixedSize=1;fillColor=#a20025;fontColor=#ffffff;strokeColor=#6F0000;" parent="GmEpQiNNZt4ZZr8mpuTk-1" vertex="1">
                    <mxGeometry x="180" y="260" width="120" height="60" as="geometry"/>
                </mxCell>
                <mxCell id="QTRB3e0ypyOCsjY6Pwa0-0" value="Calculate&lt;br&gt;account" style="shape=process;whiteSpace=wrap;html=1;backgroundOutline=1;" parent="GmEpQiNNZt4ZZr8mpuTk-1" vertex="1">
                    <mxGeometry x="40" y="260" width="120" height="60" as="geometry"/>
                </mxCell>
                <mxCell id="J0gOmS68St4jyQfyZ7O3-0" value="Matching" style="rounded=1;whiteSpace=wrap;html=1;arcSize=50;" parent="GmEpQiNNZt4ZZr8mpuTk-1" vertex="1">
                    <mxGeometry x="180" y="340" width="120" height="60" as="geometry"/>
                </mxCell>
                <mxCell id="J0gOmS68St4jyQfyZ7O3-6" value="No" style="edgeStyle=none;html=1;" parent="GmEpQiNNZt4ZZr8mpuTk-1" source="J0gOmS68St4jyQfyZ7O3-2" target="J0gOmS68St4jyQfyZ7O3-5" edge="1">
                    <mxGeometry relative="1" as="geometry"/>
                </mxCell>
                <mxCell id="J0gOmS68St4jyQfyZ7O3-8" value="Yes" style="edgeStyle=none;html=1;entryX=0;entryY=0.5;entryDx=0;entryDy=0;" parent="GmEpQiNNZt4ZZr8mpuTk-1" source="J0gOmS68St4jyQfyZ7O3-2" target="oMeXJ1or74IfHMGFRNuD-3" edge="1">
                    <mxGeometry relative="1" as="geometry">
                        <mxPoint x="500" y="300" as="targetPoint"/>
                    </mxGeometry>
                </mxCell>
                <mxCell id="J0gOmS68St4jyQfyZ7O3-2" value="is&lt;br&gt;overdue?" style="rhombus;whiteSpace=wrap;html=1;" parent="GmEpQiNNZt4ZZr8mpuTk-1" vertex="1">
                    <mxGeometry x="385" y="260" width="80" height="80" as="geometry"/>
                </mxCell>
                <mxCell id="oMeXJ1or74IfHMGFRNuD-0" style="edgeStyle=none;html=1;exitX=0;exitY=0.5;exitDx=0;exitDy=0;entryX=1;entryY=0.5;entryDx=0;entryDy=0;" parent="GmEpQiNNZt4ZZr8mpuTk-1" source="J0gOmS68St4jyQfyZ7O3-5" target="GmpOrZBrnGhalzWjqzNu-4" edge="1">
                    <mxGeometry relative="1" as="geometry">
                        <Array as="points">
                            <mxPoint x="340" y="420"/>
                            <mxPoint x="340" y="210"/>
                        </Array>
                    </mxGeometry>
                </mxCell>
                <mxCell id="fdAWcUdKB6TWobjN0iDz-0" value="Yes" style="edgeLabel;html=1;align=center;verticalAlign=middle;resizable=0;points=[];" vertex="1" connectable="0" parent="oMeXJ1or74IfHMGFRNuD-0">
                    <mxGeometry x="-0.9148" y="-3" relative="1" as="geometry">
                        <mxPoint as="offset"/>
                    </mxGeometry>
                </mxCell>
                <mxCell id="oMeXJ1or74IfHMGFRNuD-1" value="No" style="edgeStyle=none;html=1;exitX=1;exitY=0.5;exitDx=0;exitDy=0;entryX=0.5;entryY=1;entryDx=0;entryDy=0;" parent="GmEpQiNNZt4ZZr8mpuTk-1" source="J0gOmS68St4jyQfyZ7O3-5" target="oMeXJ1or74IfHMGFRNuD-3" edge="1">
                    <mxGeometry x="-0.6216" relative="1" as="geometry">
                        <mxPoint x="560" y="330" as="targetPoint"/>
                        <Array as="points">
                            <mxPoint x="560" y="420"/>
                        </Array>
                        <mxPoint as="offset"/>
                    </mxGeometry>
                </mxCell>
                <mxCell id="J0gOmS68St4jyQfyZ7O3-5" value="is&lt;br&gt;lease paid?" style="rhombus;whiteSpace=wrap;html=1;" parent="GmEpQiNNZt4ZZr8mpuTk-1" vertex="1">
                    <mxGeometry x="385" y="380" width="80" height="80" as="geometry"/>
                </mxCell>
                <mxCell id="oMeXJ1or74IfHMGFRNuD-2" style="edgeStyle=none;html=1;exitX=0.5;exitY=0;exitDx=0;exitDy=0;entryX=1;entryY=0.5;entryDx=0;entryDy=0;" parent="GmEpQiNNZt4ZZr8mpuTk-1" source="oMeXJ1or74IfHMGFRNuD-3" target="GmpOrZBrnGhalzWjqzNu-1" edge="1">
                    <mxGeometry relative="1" as="geometry">
                        <mxPoint x="560" y="270" as="sourcePoint"/>
                        <Array as="points">
                            <mxPoint x="560" y="210"/>
                        </Array>
                    </mxGeometry>
                </mxCell>
                <mxCell id="oMeXJ1or74IfHMGFRNuD-3" value="Lease reminding" style="shape=trapezoid;perimeter=trapezoidPerimeter;whiteSpace=wrap;html=1;fixedSize=1;fillColor=#008a00;strokeColor=#005700;fontColor=#ffffff;" parent="GmEpQiNNZt4ZZr8mpuTk-1" vertex="1">
                    <mxGeometry x="500" y="270" width="120" height="60" as="geometry"/>
                </mxCell>
            </root>
        </mxGraphModel>
    </diagram>
    <diagram id="x-cXamSDGhnDJdlRJ0Sg" name="STNK/BPKB">
        <mxGraphModel dx="1377" dy="860" grid="1" gridSize="10" guides="1" tooltips="1" connect="1" arrows="1" fold="1" page="1" pageScale="1" pageWidth="850" pageHeight="1100" math="0" shadow="0">
            <root>
                <mxCell id="aC-lXr1wnsTCfbBjPBIT-0"/>
                <mxCell id="aC-lXr1wnsTCfbBjPBIT-1" parent="aC-lXr1wnsTCfbBjPBIT-0"/>
                <mxCell id="vomziWoBpHPHLaUNYGCv-2" value="" style="edgeStyle=none;html=1;" parent="aC-lXr1wnsTCfbBjPBIT-1" source="vomziWoBpHPHLaUNYGCv-0" target="vomziWoBpHPHLaUNYGCv-1" edge="1">
                    <mxGeometry relative="1" as="geometry"/>
                </mxCell>
                <mxCell id="vomziWoBpHPHLaUNYGCv-0" value="STNK/BPKB&lt;br&gt;Submission" style="rounded=1;whiteSpace=wrap;html=1;arcSize=50;" parent="aC-lXr1wnsTCfbBjPBIT-1" vertex="1">
                    <mxGeometry x="365" y="20" width="120" height="60" as="geometry"/>
                </mxCell>
                <mxCell id="vomziWoBpHPHLaUNYGCv-4" value="" style="edgeStyle=none;html=1;" parent="aC-lXr1wnsTCfbBjPBIT-1" source="vomziWoBpHPHLaUNYGCv-1" target="vomziWoBpHPHLaUNYGCv-3" edge="1">
                    <mxGeometry relative="1" as="geometry"/>
                </mxCell>
                <mxCell id="vomziWoBpHPHLaUNYGCv-1" value="Input astra&lt;br&gt;invoice" style="shape=parallelogram;perimeter=parallelogramPerimeter;whiteSpace=wrap;html=1;fixedSize=1;fillColor=#008a00;fontColor=#ffffff;strokeColor=#005700;" parent="aC-lXr1wnsTCfbBjPBIT-1" vertex="1">
                    <mxGeometry x="365" y="110" width="120" height="60" as="geometry"/>
                </mxCell>
                <mxCell id="vomziWoBpHPHLaUNYGCv-6" value="" style="edgeStyle=none;html=1;" parent="aC-lXr1wnsTCfbBjPBIT-1" source="vomziWoBpHPHLaUNYGCv-3" target="vomziWoBpHPHLaUNYGCv-5" edge="1">
                    <mxGeometry relative="1" as="geometry"/>
                </mxCell>
                <mxCell id="vomziWoBpHPHLaUNYGCv-3" value="Input data&lt;br&gt;(sales)&lt;br&gt;STNK/BPKB&lt;br&gt;want submission" style="shape=parallelogram;perimeter=parallelogramPerimeter;whiteSpace=wrap;html=1;fixedSize=1;fillColor=#008a00;fontColor=#ffffff;strokeColor=#005700;" parent="aC-lXr1wnsTCfbBjPBIT-1" vertex="1">
                    <mxGeometry x="365" y="200" width="120" height="60" as="geometry"/>
                </mxCell>
                <mxCell id="vomziWoBpHPHLaUNYGCv-8" value="" style="edgeStyle=none;html=1;entryX=0.5;entryY=0;entryDx=0;entryDy=0;" parent="aC-lXr1wnsTCfbBjPBIT-1" source="vomziWoBpHPHLaUNYGCv-5" target="AgPmlQrk8EQBCfxP19g_-0" edge="1">
                    <mxGeometry relative="1" as="geometry">
                        <mxPoint x="425" y="380" as="targetPoint"/>
                    </mxGeometry>
                </mxCell>
                <mxCell id="vomziWoBpHPHLaUNYGCv-5" value="Choose&lt;br&gt;all data sales want submision recap" style="shape=parallelogram;perimeter=parallelogramPerimeter;whiteSpace=wrap;html=1;fixedSize=1;fillColor=#008a00;fontColor=#ffffff;strokeColor=#005700;" parent="aC-lXr1wnsTCfbBjPBIT-1" vertex="1">
                    <mxGeometry x="365" y="290" width="120" height="60" as="geometry"/>
                </mxCell>
                <mxCell id="AgPmlQrk8EQBCfxP19g_-5" style="edgeStyle=none;html=1;exitX=1;exitY=0.5;exitDx=0;exitDy=0;entryX=0.596;entryY=-0.045;entryDx=0;entryDy=0;entryPerimeter=0;" parent="aC-lXr1wnsTCfbBjPBIT-1" source="AgPmlQrk8EQBCfxP19g_-0" target="AgPmlQrk8EQBCfxP19g_-4" edge="1">
                    <mxGeometry relative="1" as="geometry"/>
                </mxCell>
                <mxCell id="AgPmlQrk8EQBCfxP19g_-7" value="No" style="edgeLabel;html=1;align=center;verticalAlign=middle;resizable=0;points=[];" parent="AgPmlQrk8EQBCfxP19g_-5" vertex="1" connectable="0">
                    <mxGeometry x="-0.567" y="4" relative="1" as="geometry">
                        <mxPoint as="offset"/>
                    </mxGeometry>
                </mxCell>
                <mxCell id="AgPmlQrk8EQBCfxP19g_-6" style="edgeStyle=none;html=1;exitX=0;exitY=0.5;exitDx=0;exitDy=0;entryX=0.5;entryY=0;entryDx=0;entryDy=0;" parent="aC-lXr1wnsTCfbBjPBIT-1" source="AgPmlQrk8EQBCfxP19g_-0" target="AgPmlQrk8EQBCfxP19g_-3" edge="1">
                    <mxGeometry relative="1" as="geometry"/>
                </mxCell>
                <mxCell id="AgPmlQrk8EQBCfxP19g_-8" value="Yes" style="edgeLabel;html=1;align=center;verticalAlign=middle;resizable=0;points=[];" parent="AgPmlQrk8EQBCfxP19g_-6" vertex="1" connectable="0">
                    <mxGeometry x="-0.5083" y="3" relative="1" as="geometry">
                        <mxPoint as="offset"/>
                    </mxGeometry>
                </mxCell>
                <mxCell id="AgPmlQrk8EQBCfxP19g_-0" value="is unotice&lt;br&gt;already?" style="rhombus;whiteSpace=wrap;html=1;" parent="aC-lXr1wnsTCfbBjPBIT-1" vertex="1">
                    <mxGeometry x="385" y="380" width="80" height="80" as="geometry"/>
                </mxCell>
                <mxCell id="Biqihgof6n2p29BWMpe7-2" style="edgeStyle=none;html=1;exitX=0.5;exitY=1;exitDx=0;exitDy=0;entryX=0.25;entryY=0;entryDx=0;entryDy=0;" parent="aC-lXr1wnsTCfbBjPBIT-1" source="AgPmlQrk8EQBCfxP19g_-3" target="Biqihgof6n2p29BWMpe7-0" edge="1">
                    <mxGeometry relative="1" as="geometry"/>
                </mxCell>
                <mxCell id="AgPmlQrk8EQBCfxP19g_-3" value="input notice" style="shape=parallelogram;perimeter=parallelogramPerimeter;whiteSpace=wrap;html=1;fixedSize=1;fillColor=#60a917;fontColor=#ffffff;strokeColor=#2D7600;" parent="aC-lXr1wnsTCfbBjPBIT-1" vertex="1">
                    <mxGeometry x="260" y="460" width="120" height="60" as="geometry"/>
                </mxCell>
                <mxCell id="Biqihgof6n2p29BWMpe7-1" style="edgeStyle=none;html=1;exitX=0.5;exitY=1;exitDx=0;exitDy=0;entryX=0.75;entryY=0;entryDx=0;entryDy=0;" parent="aC-lXr1wnsTCfbBjPBIT-1" source="AgPmlQrk8EQBCfxP19g_-4" target="Biqihgof6n2p29BWMpe7-0" edge="1">
                    <mxGeometry relative="1" as="geometry"/>
                </mxCell>
                <mxCell id="AgPmlQrk8EQBCfxP19g_-4" value="input unotice" style="shape=parallelogram;perimeter=parallelogramPerimeter;whiteSpace=wrap;html=1;fixedSize=1;fillColor=#60a917;fontColor=#ffffff;strokeColor=#2D7600;" parent="aC-lXr1wnsTCfbBjPBIT-1" vertex="1">
                    <mxGeometry x="465" y="460" width="120" height="60" as="geometry"/>
                </mxCell>
                <mxCell id="_0jIlx20yDrRf64n6msN-1" value="" style="edgeStyle=none;html=1;" parent="aC-lXr1wnsTCfbBjPBIT-1" source="Biqihgof6n2p29BWMpe7-0" target="_0jIlx20yDrRf64n6msN-0" edge="1">
                    <mxGeometry relative="1" as="geometry"/>
                </mxCell>
                <mxCell id="Biqihgof6n2p29BWMpe7-0" value="Finance&lt;br&gt;payments&lt;br&gt;to services broker" style="shape=parallelogram;perimeter=parallelogramPerimeter;whiteSpace=wrap;html=1;fixedSize=1;fillColor=#a20025;fontColor=#ffffff;strokeColor=#6F0000;" parent="aC-lXr1wnsTCfbBjPBIT-1" vertex="1">
                    <mxGeometry x="365" y="550" width="120" height="60" as="geometry"/>
                </mxCell>
                <mxCell id="83fyPdJqs2Z4y9o3T_Ec-2" value="" style="edgeStyle=none;html=1;" parent="aC-lXr1wnsTCfbBjPBIT-1" source="_0jIlx20yDrRf64n6msN-0" target="83fyPdJqs2Z4y9o3T_Ec-0" edge="1">
                    <mxGeometry relative="1" as="geometry"/>
                </mxCell>
                <mxCell id="rLn71ggqzt_cgSfQal2J-3" value="" style="edgeStyle=none;html=1;" parent="aC-lXr1wnsTCfbBjPBIT-1" source="_0jIlx20yDrRf64n6msN-0" target="rLn71ggqzt_cgSfQal2J-2" edge="1">
                    <mxGeometry relative="1" as="geometry"/>
                </mxCell>
                <mxCell id="_0jIlx20yDrRf64n6msN-0" value="Input current&lt;br&gt;account&lt;br&gt;( - )" style="shape=parallelogram;perimeter=parallelogramPerimeter;whiteSpace=wrap;html=1;fixedSize=1;fillColor=#a20025;strokeColor=#6F0000;fontColor=#ffffff;" parent="aC-lXr1wnsTCfbBjPBIT-1" vertex="1">
                    <mxGeometry x="365" y="630" width="120" height="60" as="geometry"/>
                </mxCell>
                <mxCell id="qGB4TeF6KCA7JukR0Uie-1" value="" style="edgeStyle=none;html=1;" edge="1" parent="aC-lXr1wnsTCfbBjPBIT-1" source="83fyPdJqs2Z4y9o3T_Ec-0" target="qGB4TeF6KCA7JukR0Uie-0">
                    <mxGeometry relative="1" as="geometry"/>
                </mxCell>
                <mxCell id="83fyPdJqs2Z4y9o3T_Ec-0" value="Matching process" style="shape=parallelogram;perimeter=parallelogramPerimeter;whiteSpace=wrap;html=1;fixedSize=1;fillColor=#a20025;strokeColor=#6F0000;fontColor=#ffffff;" parent="aC-lXr1wnsTCfbBjPBIT-1" vertex="1">
                    <mxGeometry x="365" y="720" width="120" height="60" as="geometry"/>
                </mxCell>
                <mxCell id="rLn71ggqzt_cgSfQal2J-2" value="Creating journal" style="shape=process;whiteSpace=wrap;html=1;backgroundOutline=1;" parent="aC-lXr1wnsTCfbBjPBIT-1" vertex="1">
                    <mxGeometry x="520" y="630" width="120" height="60" as="geometry"/>
                </mxCell>
                <mxCell id="qGB4TeF6KCA7JukR0Uie-0" value="Matching" style="rounded=1;whiteSpace=wrap;html=1;arcSize=50;" vertex="1" parent="aC-lXr1wnsTCfbBjPBIT-1">
                    <mxGeometry x="365" y="810" width="120" height="60" as="geometry"/>
                </mxCell>
            </root>
        </mxGraphModel>
    </diagram>
</mxfile>